<?xml version="1.0" encoding="UTF-8" standalone="no"?><!-- Generator: Gravit.io --><svg xmlns="http://www.w3.org/2000/svg" xmlns:xlink="http://www.w3.org/1999/xlink" style="isolation:isolate" viewBox="0 0 85 10" width="85pt" height="10pt"><defs><clipPath id="_clipPath_ZfHHD0ACzfiSGXJLTuXMK71TINxLz3fJ"><rect width="85" height="10"/></clipPath></defs><g clip-path="url(#_clipPath_ZfHHD0ACzfiSGXJLTuXMK71TINxLz3fJ)"><rect width="85" height="10" style="fill:rgb(236,143,143)" fill-opacity="0"/><g><g><path d=" M 8.166 5.402 C 8.383 7.333 9.874 8.621 11.976 8.621 C 14.253 8.621 15.813 7.11 15.813 4.907 C 15.813 2.704 14.253 1.184 11.976 1.184 C 9.699 1.184 8.139 2.704 8.139 4.907 C 8.139 4.948 8.139 4.988 8.14 5.027 L 7.04 5.027 C 7.021 4.944 6.99 4.864 6.947 4.79 C 6.872 4.66 6.765 4.553 6.635 4.479 C 6.506 4.404 6.359 4.366 6.21 4.367 C 6.061 4.368 5.915 4.409 5.787 4.486 L 5.146 3.841 C 5.241 3.679 5.281 3.49 5.258 3.303 C 5.234 3.116 5.15 2.942 5.017 2.808 C 4.885 2.675 4.712 2.59 4.526 2.567 C 4.34 2.543 4.152 2.583 3.991 2.68 L 3.494 2.179 C 3.558 2.043 3.573 1.889 3.535 1.743 C 3.497 1.597 3.41 1.47 3.287 1.383 C 3.165 1.296 3.016 1.255 2.867 1.268 C 2.718 1.281 2.578 1.346 2.472 1.452 C 2.366 1.559 2.301 1.7 2.288 1.85 C 2.275 2 2.316 2.15 2.402 2.273 C 2.489 2.396 2.616 2.484 2.761 2.522 C 2.906 2.56 3.059 2.545 3.194 2.48 L 3.692 2.981 C 3.623 3.099 3.583 3.232 3.577 3.368 L 2.822 3.621 C 2.814 3.611 2.807 3.601 2.799 3.592 C 2.791 3.581 2.782 3.571 2.773 3.561 C 2.669 3.456 2.533 3.391 2.387 3.375 C 2.24 3.36 2.093 3.396 1.97 3.477 C 1.848 3.558 1.756 3.68 1.712 3.821 C 1.668 3.962 1.674 4.114 1.729 4.251 C 1.784 4.389 1.884 4.503 2.013 4.574 C 2.141 4.646 2.291 4.67 2.436 4.643 C 2.58 4.617 2.711 4.541 2.806 4.428 C 2.901 4.315 2.955 4.173 2.958 4.025 L 3.664 3.788 C 3.704 3.871 3.756 3.947 3.82 4.013 C 3.953 4.145 4.126 4.23 4.311 4.254 C 4.497 4.277 4.685 4.238 4.846 4.142 L 5.487 4.787 C 5.411 4.917 5.371 5.065 5.371 5.217 C 5.371 5.368 5.411 5.516 5.487 5.647 L 4.846 6.292 C 4.752 6.234 4.648 6.196 4.54 6.18 C 4.431 6.163 4.321 6.168 4.214 6.195 C 4.107 6.221 4.007 6.269 3.919 6.334 C 3.831 6.4 3.756 6.483 3.7 6.577 L 2.954 6.373 C 2.943 6.22 2.879 6.076 2.773 5.967 C 2.666 5.857 2.525 5.789 2.373 5.774 C 2.222 5.76 2.07 5.8 1.945 5.887 C 1.819 5.974 1.729 6.103 1.689 6.251 C 1.65 6.399 1.664 6.556 1.728 6.695 C 1.793 6.834 1.905 6.945 2.043 7.009 C 2.181 7.072 2.338 7.085 2.485 7.044 C 2.631 7.003 2.759 6.911 2.844 6.784 L 3.576 6.985 C 3.569 7.149 3.609 7.311 3.692 7.453 L 3.194 7.953 C 3.089 7.903 2.973 7.883 2.857 7.895 C 2.742 7.907 2.631 7.951 2.539 8.022 C 2.447 8.093 2.375 8.187 2.333 8.296 C 2.29 8.405 2.278 8.523 2.298 8.638 C 2.318 8.754 2.369 8.861 2.445 8.949 C 2.522 9.037 2.621 9.102 2.732 9.137 C 2.842 9.172 2.961 9.176 3.073 9.148 C 3.186 9.121 3.289 9.062 3.371 8.979 C 3.464 8.886 3.525 8.766 3.547 8.636 C 3.569 8.507 3.55 8.373 3.494 8.254 L 3.991 7.754 C 4.152 7.85 4.34 7.89 4.526 7.867 C 4.712 7.843 4.885 7.758 5.017 7.625 C 5.15 7.492 5.234 7.318 5.258 7.131 C 5.281 6.944 5.241 6.754 5.146 6.593 L 5.787 5.948 C 5.915 6.024 6.061 6.065 6.21 6.066 C 6.359 6.068 6.506 6.029 6.635 5.955 C 6.765 5.881 6.872 5.773 6.947 5.644 C 6.991 5.568 7.022 5.487 7.041 5.402 L 8.166 5.402 Z  M 9.873 4.907 C 9.873 3.591 10.736 2.675 11.976 2.675 C 13.216 2.675 14.079 3.591 14.079 4.907 C 14.079 6.213 13.216 7.13 11.976 7.13 C 10.736 7.13 9.873 6.213 9.873 4.907 Z  M 4.12 3.712 C 4.06 3.652 4.02 3.576 4.004 3.494 C 3.987 3.411 3.996 3.326 4.028 3.248 C 4.06 3.17 4.114 3.104 4.184 3.057 C 4.253 3.01 4.335 2.985 4.419 2.985 C 4.503 2.985 4.584 3.01 4.654 3.057 C 4.723 3.104 4.778 3.17 4.81 3.248 C 4.842 3.326 4.85 3.411 4.834 3.494 C 4.817 3.576 4.777 3.652 4.718 3.712 C 4.638 3.792 4.531 3.836 4.419 3.836 C 4.307 3.836 4.199 3.792 4.12 3.712 Z  M 5.915 4.916 C 5.974 4.856 6.049 4.816 6.132 4.799 C 6.214 4.783 6.299 4.791 6.376 4.824 C 6.453 4.856 6.52 4.91 6.566 4.98 C 6.613 5.05 6.637 5.133 6.637 5.217 C 6.637 5.301 6.613 5.383 6.566 5.453 C 6.52 5.523 6.453 5.578 6.376 5.61 C 6.299 5.642 6.214 5.651 6.132 5.634 C 6.049 5.618 5.974 5.577 5.915 5.518 C 5.836 5.438 5.791 5.33 5.791 5.217 C 5.791 5.104 5.836 4.996 5.915 4.916 Z  M 4.718 6.722 C 4.777 6.781 4.817 6.857 4.834 6.94 C 4.85 7.022 4.842 7.108 4.81 7.186 C 4.778 7.263 4.723 7.33 4.654 7.377 C 4.584 7.424 4.503 7.448 4.419 7.448 C 4.335 7.448 4.253 7.424 4.184 7.377 C 4.114 7.33 4.06 7.263 4.028 7.186 C 3.996 7.108 3.987 7.022 4.004 6.94 C 4.02 6.857 4.06 6.781 4.12 6.722 C 4.199 6.642 4.307 6.597 4.419 6.597 C 4.531 6.597 4.638 6.642 4.718 6.722 Z " fill-rule="evenodd" fill="rgb(139,173,185)"/><path d=" M 18.644 8.572 C 19.293 8.572 19.817 8.231 20.175 7.695 L 20.175 8.377 L 21.667 8.377 L 21.667 3.377 L 20.127 3.377 L 20.127 6.174 C 20.127 6.779 19.739 7.208 19.206 7.208 C 18.663 7.208 18.295 6.769 18.295 6.145 L 18.295 3.377 L 16.754 3.377 L 16.754 6.515 C 16.754 7.705 17.549 8.572 18.644 8.572 Z " fill="rgb(139,173,185)"/><path d=" M 22.461 4.547 L 23.149 4.547 L 23.149 6.711 C 23.149 7.831 23.808 8.572 24.786 8.572 C 25.126 8.572 25.533 8.514 25.833 8.416 L 25.833 7.139 C 25.668 7.188 25.465 7.208 25.31 7.208 C 24.932 7.208 24.69 6.935 24.69 6.525 L 24.69 4.547 L 25.794 4.547 L 25.794 3.377 L 24.69 3.377 L 24.69 2.305 L 23.149 2.305 L 23.149 3.377 L 22.461 3.377 L 22.461 4.547 Z " fill="rgb(139,173,185)"/><path d=" M 29.348 8.621 C 31.15 8.621 32.4 7.627 32.391 6.194 C 32.391 4.495 30.889 4.303 29.642 4.144 C 28.757 4.031 28.001 3.935 28.001 3.328 C 28.001 2.831 28.543 2.48 29.309 2.48 C 30.075 2.48 30.656 2.831 30.714 3.338 L 32.1 3.338 L 32.1 2.577 C 31.819 1.759 30.656 1.184 29.26 1.184 C 27.574 1.184 26.411 2.129 26.411 3.494 C 26.411 5.207 27.911 5.405 29.159 5.569 C 30.049 5.687 30.811 5.788 30.811 6.408 C 30.811 6.944 30.22 7.334 29.406 7.324 C 28.611 7.324 28.001 6.915 27.933 6.34 L 26.537 6.34 L 26.537 7.1 C 26.857 7.997 28.01 8.621 29.348 8.621 Z " fill="rgb(139,173,185)"/><path d=" M 34.876 3.377 L 33.393 3.377 L 33.393 8.377 L 34.934 8.377 L 34.934 5.541 C 34.934 4.946 35.273 4.547 35.797 4.547 C 36.301 4.547 36.63 4.946 36.63 5.541 L 36.63 8.377 L 38.171 8.377 L 38.171 5.541 C 38.171 4.956 38.529 4.547 39.063 4.547 C 39.586 4.566 39.935 4.985 39.935 5.541 L 39.935 8.377 L 41.475 8.377 L 41.475 5.209 C 41.475 4.02 40.7 3.192 39.576 3.192 C 38.898 3.192 38.229 3.523 37.919 4.069 C 37.628 3.523 37.047 3.182 36.33 3.182 C 35.729 3.182 35.176 3.474 34.876 3.981 L 34.876 3.377 Z " fill="rgb(139,173,185)"/><path d=" M 45.148 3.182 C 43.53 3.182 42.387 4.313 42.387 5.882 C 42.387 7.471 43.384 8.572 44.829 8.572 C 45.516 8.572 46.108 8.29 46.515 7.783 L 46.515 8.377 L 47.929 8.377 L 47.929 5.882 C 47.929 4.313 46.767 3.182 45.148 3.182 Z  M 45.158 4.547 C 45.875 4.547 46.389 5.102 46.389 5.882 C 46.389 6.652 45.875 7.208 45.158 7.208 C 44.441 7.208 43.927 6.652 43.927 5.882 C 43.927 5.102 44.441 4.547 45.158 4.547 Z " fill-rule="evenodd" fill="rgb(139,173,185)"/><path d=" M 51.847 3.192 C 51.285 3.192 50.8 3.513 50.519 4.02 L 50.519 3.377 L 49.037 3.377 L 49.037 8.377 L 50.578 8.377 L 50.578 5.736 C 50.578 5.034 50.926 4.547 51.42 4.547 C 51.721 4.547 52.002 4.722 52.089 4.976 L 52.845 4.976 L 52.845 3.572 C 52.651 3.348 52.244 3.192 51.847 3.192 Z " fill="rgb(139,173,185)"/><path d=" M 53.227 4.547 L 53.915 4.547 L 53.915 6.711 C 53.915 7.831 54.574 8.572 55.552 8.572 C 55.892 8.572 56.299 8.514 56.599 8.416 L 56.599 7.139 C 56.434 7.188 56.231 7.208 56.076 7.208 C 55.698 7.208 55.455 6.935 55.455 6.525 L 55.455 4.547 L 56.56 4.547 L 56.56 3.377 L 55.455 3.377 L 55.455 2.305 L 53.915 2.305 L 53.915 3.377 L 53.227 3.377 L 53.227 4.547 Z " fill="rgb(139,173,185)"/><path d=" M 67.118 4.907 C 67.118 2.821 65.529 1.427 63.145 1.427 L 60.49 1.427 L 60.49 8.377 L 63.145 8.377 C 65.529 8.377 67.118 6.993 67.118 4.907 Z  M 63.145 2.773 C 64.492 2.773 65.393 3.601 65.393 4.907 C 65.393 6.204 64.492 7.032 63.145 7.032 L 62.176 7.032 L 62.176 2.773 L 63.145 2.773 Z " fill-rule="evenodd" fill="rgb(139,173,185)"/><path d=" M 70.672 3.182 C 69.053 3.182 67.91 4.313 67.91 5.882 C 67.91 7.471 68.908 8.572 70.352 8.572 C 71.04 8.572 71.631 8.29 72.038 7.783 L 72.038 8.377 L 73.453 8.377 L 73.453 5.882 C 73.453 4.313 72.29 3.182 70.672 3.182 Z  M 70.681 4.547 C 71.398 4.547 71.912 5.102 71.912 5.882 C 71.912 6.652 71.398 7.208 70.681 7.208 C 69.964 7.208 69.451 6.652 69.451 5.882 C 69.451 5.102 69.964 4.547 70.681 4.547 Z " fill-rule="evenodd" fill="rgb(139,173,185)"/><path d=" M 73.914 4.547 L 74.602 4.547 L 74.602 6.711 C 74.602 7.831 75.261 8.572 76.24 8.572 C 76.579 8.572 76.986 8.514 77.286 8.416 L 77.286 7.139 C 77.121 7.188 76.918 7.208 76.763 7.208 C 76.385 7.208 76.143 6.935 76.143 6.525 L 76.143 4.547 L 77.248 4.547 L 77.248 3.377 L 76.143 3.377 L 76.143 2.305 L 74.602 2.305 L 74.602 3.377 L 73.914 3.377 L 73.914 4.547 Z " fill="rgb(139,173,185)"/><path d=" M 80.551 3.182 C 78.933 3.182 77.789 4.313 77.789 5.882 C 77.789 7.471 78.788 8.572 80.232 8.572 C 80.92 8.572 81.511 8.29 81.918 7.783 L 81.918 8.377 L 83.333 8.377 L 83.333 5.882 C 83.333 4.313 82.17 3.182 80.551 3.182 Z  M 80.561 4.547 C 81.278 4.547 81.792 5.102 81.792 5.882 C 81.792 6.652 81.278 7.208 80.561 7.208 C 79.844 7.208 79.33 6.652 79.33 5.882 C 79.33 5.102 79.844 4.547 80.561 4.547 Z " fill-rule="evenodd" fill="rgb(139,173,185)"/></g></g></g></svg>